<svg xmlns="http://www.w3.org/2000/svg" xmlns:xlink="http://www.w3.org/1999/xlink" viewBox="0 0 2728.18 666.54"><defs><style>.a{fill:#002f5e;}.b{fill:url(#a);}.c{fill:url(#b);}</style><linearGradient id="a" y1="242.34" x2="317.82" y2="242.34" gradientUnits="userSpaceOnUse"><stop offset="0" stop-color="#ed1b2c"/><stop offset="1" stop-color="#f97863"/></linearGradient><linearGradient id="b" x1="138.74" y1="424.19" x2="456.55" y2="424.19" gradientUnits="userSpaceOnUse"><stop offset="0" stop-color="#6dccfc"/><stop offset="1" stop-color="#197bb8"/></linearGradient></defs><title>11자산 1</title><path class="a" d="M1052,320.45q35.21,35.24,35.22,105.66V608.43H994.91V440.32q0-37.87-15.69-56.53t-44.69-18.64q-32.56,0-51.5,21t-18.94,62.45V608.43H771.75V440.32q0-75.17-60.38-75.17-32,0-50.91,21t-18.94,62.45V608.43H549.18V290h88.2v36.7a116.63,116.63,0,0,1,43.5-30.78q25.75-10.65,56.53-10.66,33.75,0,61,13.32a108.14,108.14,0,0,1,43.81,38.77,130.64,130.64,0,0,1,49.42-38.47Q921.5,285.24,957,285.23,1016.81,285.23,1052,320.45Z"/><path class="a" d="M1412.22,320.45q39.66,35.24,39.66,106.26V608.43h-86.42V568.77q-26.06,44.4-97.08,44.4-36.7,0-63.63-12.43t-41.14-34.34q-14.2-21.89-14.21-49.72,0-44.4,33.45-69.85t103.29-25.45h73.4q0-30.19-18.35-46.47t-55-16.28a160.64,160.64,0,0,0-50,8q-24.57,8-41.73,21.6l-33.15-64.52q26-18.34,62.45-28.41a279.65,279.65,0,0,1,74.88-10.07Q1372.55,285.23,1412.22,320.45Zm-78.73,219.61q18.35-10.93,26-32.26V475.25H1296.2q-56.82,0-56.82,37.29,0,17.76,13.91,28.11T1291.47,551Q1315.13,551,1333.49,540.06Z"/><path class="a" d="M1740.74,593q-13.62,10.08-33.44,15.1a169.91,169.91,0,0,1-41.74,5q-56.82,0-87.9-29t-31.08-85.24V368.11h-49.13v-71h49.13V219.53h92.35v77.54h79.32v71h-79.32V497.74q0,20.13,10.36,31.08t29.3,10.95q21.89,0,37.29-11.84Z"/><path class="a" d="M1797.57,230.78q-16-14.79-16-36.7t16-36.7q16-14.79,41.43-14.8t41.44,14.2q16,14.21,16,35.52,0,23.08-16,38.18T1839,245.57Q1813.55,245.57,1797.57,230.78ZM1792.83,290h92.34V608.43h-92.34Z"/><path class="a" d="M2213.1,320.45q39.66,35.24,39.66,106.26V608.43h-86.42V568.77q-26.06,44.4-97.08,44.4-36.71,0-63.63-12.43t-41.14-34.34q-14.21-21.89-14.21-49.72,0-44.4,33.45-69.85T2087,421.38h73.4q0-30.19-18.35-46.47T2087,358.63a160.64,160.64,0,0,0-50,8q-24.57,8-41.73,21.6l-33.15-64.52q26-18.34,62.45-28.41a279.65,279.65,0,0,1,74.88-10.07Q2173.45,285.23,2213.1,320.45Zm-78.73,219.61q18.35-10.93,26.05-32.26V475.25h-63.34q-56.82,0-56.82,37.29,0,17.76,13.91,28.11T2092.35,551Q2116,551,2134.37,540.06Z"/><path class="a" d="M2365.82,603.4q-37.89-9.76-60.38-24.56l30.78-66.3q21.32,13.62,51.5,22.2a215.84,215.84,0,0,0,59.19,8.58q58.61,0,58.6-29,0-13.6-16-19.53t-49.13-10.06q-39.06-5.91-64.52-13.62a99.94,99.94,0,0,1-44.1-27.23q-18.65-19.53-18.65-55.64,0-30.18,17.47-53.57t50.9-36.4q33.43-13,79-13a310.32,310.32,0,0,1,67.18,7.4q33.43,7.41,55.35,20.42l-30.78,65.71q-42-23.67-91.75-23.68-29.61,0-44.4,8.29t-14.8,21.31q0,14.81,16,20.72t50.9,11.24q39.08,6.53,63.93,13.91a96.09,96.09,0,0,1,43.21,26.94Q2593.71,477,2593.71,512A84.08,84.08,0,0,1,2576,564.63q-17.74,23.08-51.79,35.81t-80.8,12.73A309.36,309.36,0,0,1,2365.82,603.4Z"/><path class="b" d="M317.82,0S-274,588.65,157.53,468.52"/><path class="c" d="M138.74,666.54S730.54,77.89,299,198"/><path class="a" d="M2696.18,264.49l32,17.32-14.38,24.08-32.3-19.09.59,35.52H2654.5l.29-35.81-32.29,19.38-14.09-24.08,32-17.32-32-17.61,14.09-24.07,32.29,19.37-.29-35.81h27.59l-.59,35.81,32.3-19.37,14.38,24.07Z"/></svg>