<svg xmlns="http://www.w3.org/2000/svg" width="1133.79" height="277" viewBox="0 0 1133.79 277"><title>11자산 11</title><path d="M437.21,133.18q14.63,14.64,14.63,43.91v75.77H413.47V183q0-15.74-6.52-23.49t-18.57-7.75q-13.54,0-21.41,8.73t-7.87,26v66.42H320.73V183q0-31.23-25.1-31.24-13.28,0-21.15,8.73t-7.87,26v66.42H228.23V120.51h36.65v15.25A48.51,48.51,0,0,1,283,123a61,61,0,0,1,23.5-4.43,56.92,56.92,0,0,1,25.34,5.53A44.91,44.91,0,0,1,350,140.19a54.25,54.25,0,0,1,20.54-16,64.82,64.82,0,0,1,27.18-5.66Q422.58,118.54,437.21,133.18Z" style="fill:#002f5e"/><path d="M586.9,133.18q16.47,14.64,16.48,44.15v75.53H567.46V236.37q-10.83,18.45-40.34,18.45-15.25,0-26.45-5.16t-17.09-14.27a37.09,37.09,0,0,1-5.91-20.66q0-18.47,13.9-29t42.93-10.58H565q0-12.54-7.62-19.31T534.5,149a66.87,66.87,0,0,0-20.79,3.32,55,55,0,0,0-17.34,9l-13.78-26.81a83.35,83.35,0,0,1,26-11.81,116.21,116.21,0,0,1,31.12-4.18Q570.41,118.54,586.9,133.18Zm-32.72,91.26A24.89,24.89,0,0,0,565,211V197.51H538.68q-23.61,0-23.62,15.49a13.8,13.8,0,0,0,5.79,11.69q5.77,4.31,15.86,4.3A33.39,33.39,0,0,0,554.18,224.44Z" style="fill:#002f5e"/><path d="M723.42,246.46a39.28,39.28,0,0,1-13.9,6.27,70.4,70.4,0,0,1-17.34,2.09q-23.61,0-36.53-12t-12.92-35.42V153H622.32V123.46h20.41V91.23h38.38v32.23h33V153h-33v53.87q0,8.37,4.31,12.92t12.17,4.55a24.68,24.68,0,0,0,15.5-4.92Z" style="fill:#002f5e"/><path d="M747,95.91a20.84,20.84,0,0,1,0-30.51q6.65-6.14,17.22-6.15t17.22,5.91a18.9,18.9,0,0,1,6.64,14.76,20.87,20.87,0,0,1-6.64,15.86q-6.65,6.28-17.22,6.28T747,95.91Zm-2,24.6h38.38V252.86H745.07Z" style="fill:#002f5e"/><path d="M919.73,133.18q16.49,14.64,16.48,44.15v75.53H900.3V236.37Q889.47,254.82,860,254.82q-15.26,0-26.44-5.16a39.45,39.45,0,0,1-17.1-14.27,37.09,37.09,0,0,1-5.9-20.66q0-18.47,13.89-29t42.93-10.58h30.51q0-12.54-7.63-19.31T867.33,149a67,67,0,0,0-20.79,3.32,55.25,55.25,0,0,0-17.34,9l-13.77-26.81a83.14,83.14,0,0,1,26-11.81,116.15,116.15,0,0,1,31.12-4.18Q903.25,118.54,919.73,133.18ZM887,224.44A25,25,0,0,0,897.84,211V197.51H871.51q-23.61,0-23.61,15.49a13.79,13.79,0,0,0,5.78,11.69q5.77,4.31,15.87,4.3A33.36,33.36,0,0,0,887,224.44Z" style="fill:#002f5e"/><path d="M983.19,250.76q-15.74-4-25.09-10.2L970.9,213a80.16,80.16,0,0,0,21.4,9.23,89.59,89.59,0,0,0,24.6,3.57q24.35,0,24.35-12.06,0-5.66-6.64-8.12t-20.42-4.18a195.72,195.72,0,0,1-26.81-5.66,41.58,41.58,0,0,1-18.33-11.31q-7.75-8.11-7.75-23.13a36.22,36.22,0,0,1,7.26-22.26q7.25-9.72,21.15-15.13t32.85-5.41a129.58,129.58,0,0,1,27.92,3.07q13.89,3.09,23,8.49l-12.79,27.31a76.4,76.4,0,0,0-38.13-9.84q-12.31,0-18.45,3.44c-4.11,2.3-6.15,5.25-6.15,8.86q0,6.15,6.64,8.61t21.15,4.67a227.58,227.58,0,0,1,26.57,5.78,39.89,39.89,0,0,1,18,11.2q7.62,8.12,7.62,22.63a34.93,34.93,0,0,1-7.38,21.89q-7.37,9.6-21.52,14.88t-33.58,5.29A128.42,128.42,0,0,1,983.19,250.76Z" style="fill:#002f5e"/><path d="M132.08,0S-113.86,244.63,65.47,194.71" style="fill:#ed1b2c"/><path d="M57.66,277S303.6,32.37,124.27,82.29" style="fill:#62c2e6"/><path d="M1120.49,109.92l13.3,7.2-6,10-13.42-7.93.24,14.76h-11.46l.12-14.88-13.42,8.05-5.86-10,13.3-7.2L1084,102.6l5.86-10,13.42,8.06-.12-14.89h11.46l-.24,14.89,13.42-8.06,6,10Z" style="fill:#002f5e"/></svg>