<svg xmlns="http://www.w3.org/2000/svg" width="1133.79" height="277" viewBox="0 0 1133.79 277"><defs><style>.a{isolation:isolate;}.b{fill:#002f5e;}.c{fill:#ed1b2c;}.d{fill:#62c2e6;}</style></defs><title>11자산 1</title><g class="a"><path class="b" d="M437.21,133.17q14.63,14.64,14.63,43.91v75.77H413.47V183q0-15.75-6.52-23.5t-18.57-7.75q-13.54,0-21.41,8.74t-7.87,26v66.42H320.73V183q0-31.25-25.1-31.25-13.28,0-21.15,8.74t-7.87,26v66.42H228.23V120.5h36.65v15.25A48.51,48.51,0,0,1,283,123a61,61,0,0,1,23.5-4.43,56.92,56.92,0,0,1,25.34,5.54A44.88,44.88,0,0,1,350,140.18a54.34,54.34,0,0,1,20.54-16,64.82,64.82,0,0,1,27.18-5.66Q422.58,118.53,437.21,133.17Z"/><path class="b" d="M586.9,133.17q16.47,14.64,16.48,44.16v75.52H567.46V236.37q-10.83,18.45-40.34,18.45-15.25,0-26.45-5.17a39.35,39.35,0,0,1-17.09-14.27,37.07,37.07,0,0,1-5.91-20.66q0-18.45,13.9-29t42.93-10.58H565q0-12.54-7.62-19.31T534.5,149a67,67,0,0,0-20.79,3.32,54.83,54.83,0,0,0-17.34,9l-13.78-26.82a83.29,83.29,0,0,1,26-11.8,116.11,116.11,0,0,1,31.12-4.19Q570.41,118.53,586.9,133.17Zm-32.72,91.27A25,25,0,0,0,565,211V197.5H538.68q-23.61,0-23.61,15.5a13.76,13.76,0,0,0,5.78,11.68q5.77,4.31,15.86,4.31A33.49,33.49,0,0,0,554.18,224.44Z"/><path class="b" d="M723.42,246.45a39.49,39.49,0,0,1-13.89,6.28,70.54,70.54,0,0,1-17.35,2.09q-23.61,0-36.53-12.06t-12.91-35.42V153H622.32V123.45h20.42V91.23h38.37v32.22h33V153h-33v53.88q0,8.35,4.31,12.91t12.17,4.55a24.6,24.6,0,0,0,15.5-4.92Z"/><path class="b" d="M747,95.9a20.83,20.83,0,0,1,0-30.5q6.65-6.15,17.22-6.15t17.22,5.9a18.93,18.93,0,0,1,6.64,14.76,20.88,20.88,0,0,1-6.64,15.87q-6.65,6.27-17.22,6.27T747,95.9Zm-2,24.6h38.38V252.85H745.07Z"/><path class="b" d="M919.73,133.17q16.49,14.64,16.48,44.16v75.52H900.3V236.37Q889.47,254.82,860,254.82q-15.26,0-26.44-5.17a39.38,39.38,0,0,1-17.1-14.27,37.06,37.06,0,0,1-5.9-20.66q0-18.45,13.9-29t42.92-10.58h30.51q0-12.54-7.63-19.31T867.33,149a67,67,0,0,0-20.79,3.32,55,55,0,0,0-17.34,9l-13.77-26.82a83.12,83.12,0,0,1,26-11.8,116.16,116.16,0,0,1,31.12-4.19Q903.25,118.53,919.73,133.17ZM887,224.44A25,25,0,0,0,897.84,211V197.5H871.51q-23.61,0-23.61,15.5a13.76,13.76,0,0,0,5.78,11.68q5.77,4.31,15.87,4.31A33.45,33.45,0,0,0,887,224.44Z"/><path class="b" d="M983.2,250.76q-15.75-4.06-25.1-10.21L970.9,213a80.16,80.16,0,0,0,21.4,9.22,89.59,89.59,0,0,0,24.6,3.57q24.35,0,24.35-12,0-5.67-6.64-8.12t-20.42-4.18a197.24,197.24,0,0,1-26.81-5.66,41.6,41.6,0,0,1-18.33-11.32q-7.75-8.11-7.75-23.12a36.25,36.25,0,0,1,7.26-22.27q7.25-9.7,21.15-15.12t32.85-5.42a129,129,0,0,1,27.92,3.08q13.89,3.08,23,8.49l-12.79,27.3a76.4,76.4,0,0,0-38.13-9.84q-12.31,0-18.45,3.45c-4.11,2.29-6.15,5.25-6.15,8.85q0,6.15,6.64,8.61t21.15,4.68a225.53,225.53,0,0,1,26.57,5.78,40,40,0,0,1,18,11.19q7.62,8.12,7.63,22.63a35,35,0,0,1-7.38,21.9q-7.38,9.58-21.53,14.88t-33.58,5.29A128.75,128.75,0,0,1,983.2,250.76Z"/></g><path class="c" d="M132.08,0S-113.86,244.63,65.47,194.71"/><path class="d" d="M57.66,277S303.6,32.37,124.27,82.29"/><g class="a"><path class="b" d="M1120.49,109.92l13.3,7.2-6,10-13.42-7.93.25,14.77h-11.47l.12-14.89-13.42,8.05-5.86-10,13.3-7.2L1084,102.6l5.86-10,13.42,8.05-.12-14.88h11.47l-.25,14.88,13.42-8.05,6,10Z"/></g></svg>