<svg xmlns="http://www.w3.org/2000/svg" width="615.09" height="150.27" viewBox="0 0 615.09 150.27"><title>11자산 3</title><g style="isolation:isolate"><path d="M237.19,72.24q7.94,8,7.94,23.83v41.1H224.31V99.27q0-8.53-3.54-12.75t-10.07-4.2q-7.35,0-11.61,4.74t-4.28,14.08v36H174V99.27q0-17-13.62-17-7.2,0-11.47,4.74t-4.27,14.08v36H123.82V65.37H143.7v8.28a26.22,26.22,0,0,1,9.81-6.94,32.87,32.87,0,0,1,12.75-2.41,30.73,30.73,0,0,1,13.74,3,24.32,24.32,0,0,1,9.88,8.74A29.43,29.43,0,0,1,201,67.37a35.25,35.25,0,0,1,14.75-3.07Q229.24,64.3,237.19,72.24Z" style="fill:#002f5e"/><path d="M318.4,72.24q8.94,8,8.94,24v41H307.85v-8.94q-5.87,10-21.88,10a34.11,34.11,0,0,1-14.35-2.8,21.45,21.45,0,0,1-9.28-7.74,20.18,20.18,0,0,1-3.2-11.21q0-10,7.54-15.75T290,95h16.55q0-6.81-4.14-10.48T290,80.85a36.26,36.26,0,0,0-11.28,1.8,30,30,0,0,0-9.41,4.87L261.81,73a45.19,45.19,0,0,1,14.08-6.41,63.16,63.16,0,0,1,16.88-2.27Q309.45,64.3,318.4,72.24Zm-17.75,49.52a13.56,13.56,0,0,0,5.87-7.28v-7.34H292.24q-12.81,0-12.81,8.41a7.49,7.49,0,0,0,3.13,6.34q3.13,2.34,8.61,2.34A18.21,18.21,0,0,0,300.65,121.76Z" style="fill:#002f5e"/><path d="M392.46,133.7a21.28,21.28,0,0,1-7.54,3.4,38,38,0,0,1-9.41,1.14q-12.81,0-19.81-6.54t-7-19.22V83H337.61V67h11.08V49.49h20.82V67h17.88V83H369.51v29.22c0,3,.78,5.36,2.33,7a8.65,8.65,0,0,0,6.61,2.47,13.4,13.4,0,0,0,8.41-2.67Z" style="fill:#002f5e"/><path d="M405.27,52a11.31,11.31,0,0,1,0-16.55,13.21,13.21,0,0,1,9.35-3.34,13.56,13.56,0,0,1,9.34,3.2,10.29,10.29,0,0,1,3.6,8A11.34,11.34,0,0,1,424,52a13,13,0,0,1-9.34,3.4A13.25,13.25,0,0,1,405.27,52Zm-1.06,13.34H425v71.8H404.21Z" style="fill:#002f5e"/><path d="M499,72.24q8.94,8,8.94,24v41H488.42v-8.94q-5.88,10-21.89,10a34.11,34.11,0,0,1-14.35-2.8,21.36,21.36,0,0,1-9.27-7.74,20.1,20.1,0,0,1-3.2-11.21q0-10,7.54-15.75T470.53,95h16.55q0-6.81-4.13-10.48t-12.42-3.67a36.24,36.24,0,0,0-11.27,1.8,29.86,29.86,0,0,0-9.41,4.87L442.38,73a45.14,45.14,0,0,1,14.07-6.41,63.24,63.24,0,0,1,16.89-2.27Q490,64.3,499,72.24Zm-17.75,49.52a13.47,13.47,0,0,0,5.87-7.28v-7.34H472.8q-12.81,0-12.81,8.41a7.5,7.5,0,0,0,3.14,6.34q3.14,2.34,8.61,2.34A18.2,18.2,0,0,0,481.21,121.76Z" style="fill:#002f5e"/><path d="M533.39,136a45.86,45.86,0,0,1-13.61-5.54l6.94-15a43.48,43.48,0,0,0,11.61,5,48.64,48.64,0,0,0,13.35,1.93q13.2,0,13.21-6.54,0-3.06-3.61-4.4a53.07,53.07,0,0,0-11.07-2.27,106.32,106.32,0,0,1-14.55-3.07,22.52,22.52,0,0,1-9.94-6.14q-4.2-4.41-4.21-12.55a19.67,19.67,0,0,1,3.94-12.07,25.29,25.29,0,0,1,11.48-8.21,48.9,48.9,0,0,1,17.81-2.94A70,70,0,0,1,569.89,66a42.16,42.16,0,0,1,12.48,4.61l-6.94,14.81a41.43,41.43,0,0,0-20.69-5.34q-6.68,0-10,1.87t-3.34,4.8q0,3.34,3.6,4.68a64.68,64.68,0,0,0,11.48,2.53,123.18,123.18,0,0,1,14.41,3.14,21.61,21.61,0,0,1,9.75,6.07q4.13,4.39,4.13,12.28a18.93,18.93,0,0,1-4,11.87,25.53,25.53,0,0,1-11.68,8.08,52.12,52.12,0,0,1-18.22,2.87A70.08,70.08,0,0,1,533.39,136Z" style="fill:#002f5e"/></g><path d="M71.65,0S-61.77,132.71,35.52,105.63" style="fill:#ed1b2c"/><path d="M31.28,150.27S164.7,17.56,67.42,44.64" style="fill:#62c2e6"/><g style="isolation:isolate"><path d="M607.88,59.63l7.21,3.91L611.85,69l-7.28-4.3.13,8h-6.22l.06-8.07L591.26,69l-3.17-5.42,7.21-3.91-7.21-4,3.17-5.43,7.28,4.37-.06-8.07h6.22l-.13,8.07,7.28-4.37,3.24,5.43Z" style="fill:#002f5e"/></g></svg>